<svg width="16" height="16" viewBox="0 0 16 16" fill="none" xmlns="http://www.w3.org/2000/svg">
<g id="vuesax/broken/user-edit">
<g id="user-edit">
<path id="Vector" d="M10.0133 2.00684C9.45331 1.58017 8.75996 1.3335 7.99996 1.3335C6.15996 1.3335 4.66663 2.82683 4.66663 4.66683C4.66663 6.50683 6.15996 8.00016 7.99996 8.00016C9.83996 8.00016 11.3333 6.50683 11.3333 4.66683" stroke="#EEA95F" stroke-linecap="round" stroke-linejoin="round"/>
<g id="Group">
<path id="Vector_2" d="M12.8067 10.4933L10.4466 12.8534C10.3533 12.9467 10.2666 13.12 10.2466 13.2467L10.12 14.1467C10.0733 14.4733 10.3 14.7 10.6267 14.6533L11.5266 14.5267C11.6533 14.5067 11.8333 14.42 11.92 14.3267L14.28 11.9667C14.6866 11.56 14.88 11.0867 14.28 10.4867C13.6866 9.89334 13.2133 10.0867 12.8067 10.4933Z" stroke="#EEA95F" stroke-miterlimit="10" stroke-linecap="round" stroke-linejoin="round"/>
<path id="Vector_3" d="M12.4667 10.8335C12.6667 11.5535 13.2267 12.1135 13.9467 12.3135" stroke="#EEA95F" stroke-miterlimit="10" stroke-linecap="round" stroke-linejoin="round"/>
</g>
<path id="Vector_4" d="M2.27332 14.6667C2.27332 12.0867 4.84 10 8 10C8.69333 10 9.35998 10.1 9.97998 10.2867" stroke="#EEA95F" stroke-linecap="round" stroke-linejoin="round"/>
</g>
</g>
</svg>
