<svg width="24" height="24" viewBox="0 0 24 24" fill="none" xmlns="http://www.w3.org/2000/svg">
<g id="vuesax/broken/notification-bing">
<g id="notification-bing">
<path id="Vector" d="M12 6.43994V9.76994" stroke="#292D32" stroke-width="1.5" stroke-miterlimit="10" stroke-linecap="round"/>
<path id="Vector_2" d="M20.5901 15.17C21.3201 16.39 20.7401 17.97 19.3901 18.42C14.6101 20.01 9.44005 20.01 4.66005 18.42C3.22005 17.94 2.67005 16.48 3.46005 15.17L4.73005 13.05C5.08005 12.47 5.36005 11.44 5.36005 10.77V8.67C5.36005 4.98 8.34005 2 12.0201 2C15.6801 2 18.6801 5 18.6801 8.66V10.76C18.6801 10.94 18.7001 11.14 18.7301 11.35" stroke="#292D32" stroke-width="1.5" stroke-miterlimit="10" stroke-linecap="round"/>
<path id="Vector_3" d="M15.33 18.8198C15.33 20.6498 13.83 22.1498 12 22.1498C11.09 22.1498 10.25 21.7698 9.65004 21.1698C9.05004 20.5698 8.67004 19.7298 8.67004 18.8198" stroke="#292D32" stroke-width="1.5" stroke-miterlimit="10"/>
</g>
</g>
</svg>
