<svg width="16" height="16" viewBox="0 0 16 16" fill="none" xmlns="http://www.w3.org/2000/svg">
<g id="vuesax/broken/ruler&#38;pen">
<g id="ruler&#38;pen">
<path id="Vector" d="M9.64661 1.3335C8.31327 1.3335 7.64661 2.00016 7.64661 3.3335V12.6668C7.64661 14.0002 8.31327 14.6668 9.64661 14.6668H12.3133C13.6466 14.6668 14.3133 14.0002 14.3133 12.6668V3.3335C14.3133 2.00016 13.6466 1.3335 12.3133 1.3335" stroke="#6E9DF8" stroke-linecap="round"/>
<path id="Vector_2" d="M7.64661 4H10.9799" stroke="#6E9DF8" stroke-linecap="round"/>
<path id="Vector_3" d="M7.64661 12H10.3133" stroke="#6E9DF8" stroke-linecap="round"/>
<path id="Vector_4" d="M7.64661 9.30029L10.9799 9.33363" stroke="#6E9DF8" stroke-linecap="round"/>
<path id="Vector_5" d="M7.64661 6.6665H9.64661" stroke="#6E9DF8" stroke-linecap="round"/>
<path id="Vector_6" d="M1.68665 6.0135V3.30016C1.68665 2.22016 2.57331 1.3335 3.65998 1.3335C4.73998 1.3335 5.62665 2.22016 5.62665 3.30016V11.9402C5.62665 12.2402 5.49998 12.6935 5.34665 12.9535L4.79998 13.8602C4.17331 14.9068 3.13998 14.9068 2.51331 13.8602L1.96665 12.9535C1.81331 12.6935 1.68665 12.2402 1.68665 11.9402V9.30016" stroke="#6E9DF8" stroke-linecap="round"/>
<path id="Vector_7" d="M5.62665 4.6665H1.68665" stroke="#6E9DF8" stroke-linecap="round"/>
</g>
</g>
</svg>
