<svg width="11" height="16" viewBox="0 0 11 16" fill="none" xmlns="http://www.w3.org/2000/svg">
<g id="vuesax/broken/profile-delete">
<g id="profile-delete">
<path id="Vector" d="M10.2733 12.0601L8.39331 13.9401" stroke="#FF6347" stroke-linecap="round" stroke-linejoin="round"/>
<path id="Vector_2" d="M10.2733 13.9401L8.39331 12.0601" stroke="#FF6347" stroke-linecap="round" stroke-linejoin="round"/>
<path id="Vector_3" d="M6.00007 14.5404C4.78674 14.5404 3.58007 14.2338 2.66007 13.6204C1.04674 12.5404 1.04674 10.7804 2.66007 9.70711C4.49341 8.48044 7.50007 8.48044 9.33341 9.70711" stroke="#FF6347" stroke-linecap="round" stroke-linejoin="round"/>
<path id="Vector_4" d="M8.45337 2.64016C8.77337 3.1135 8.96004 3.68016 8.96004 4.2935C8.95337 5.8935 7.69337 7.1935 6.10671 7.24683C6.04004 7.24016 5.96004 7.24016 5.88671 7.24683C4.30004 7.1935 3.04004 5.8935 3.04004 4.2935C3.04004 2.66016 4.36004 1.3335 6.00004 1.3335" stroke="#FF6347" stroke-linecap="round" stroke-linejoin="round"/>
</g>
</g>
</svg>
