<svg width="24" height="24" viewBox="0 0 24 24" fill="none" xmlns="http://www.w3.org/2000/svg">
<g id="vuesax/broken/profile-2user">
<g id="profile-2user">
<path id="Vector" d="M12.6801 3.96C13.1601 4.67 13.4401 5.52 13.4401 6.44C13.4301 8.84 11.5401 10.79 9.16006 10.87C9.06006 10.86 8.94006 10.86 8.83006 10.87C6.45006 10.79 4.56006 8.84 4.56006 6.44C4.56006 3.99 6.54006 2 9.00006 2" stroke="#444851" stroke-width="1.5" stroke-linecap="round" stroke-linejoin="round"/>
<path id="Vector_2" d="M16.41 4C18.35 4 19.91 5.57 19.91 7.5C19.91 9.39 18.41 10.93 16.54 11C16.46 10.99 16.37 10.99 16.28 11" stroke="#444851" stroke-width="1.5" stroke-linecap="round" stroke-linejoin="round"/>
<path id="Vector_3" d="M4.15997 14.56C1.73997 16.18 1.73997 18.82 4.15997 20.43C6.90997 22.27 11.42 22.27 14.17 20.43C16.59 18.81 16.59 16.17 14.17 14.56C11.43 12.73 6.91997 12.73 4.15997 14.56Z" stroke="#444851" stroke-width="1.5" stroke-linecap="round" stroke-linejoin="round"/>
<path id="Vector_4" d="M18.34 20C19.06 19.85 19.74 19.56 20.3 19.13C21.86 17.96 21.86 16.03 20.3 14.86C19.75 14.44 19.08 14.16 18.37 14" stroke="#444851" stroke-width="1.5" stroke-linecap="round" stroke-linejoin="round"/>
</g>
</g>
</svg>
